<svg xmlns="http://www.w3.org/2000/svg" xmlns:xlink="http://www.w3.org/1999/xlink" viewBox="0 0 769 677"><defs><style>.cls-1{fill:#fff;}</style></defs><title>login-image_1</title><g id="Camada_2" data-name="Camada 2"><g id="Camada_2-2" data-name="Camada 2"><path class="cls-1" d="M70,677c-6.22,0-1.5-71.47-.73-76.32,7.7-48.43,35.66-84.41,82-101.22,27.65-10,57.24-13.1,86.42-16.76,88.39-11.07,185-21.5,266-60.16,25.63-12.22,50.88-28.82,63.77-54.11,14.28-28,10.87-60.49,13.06-90.85,2.19-30.21,7.53-61.92,16.84-90.74,18.8-58.23,64.12-121.71,124.17-141.53C725.36,44.06,769,35.38,769,40V677Z"/><image width="3116" height="2787" transform="translate(165 133) scale(0.18)" xlink:href="../../notebook.png"/><circle class="cls-1" cx="637.5" cy="47.5" r="38.5"/><circle class="cls-1" cx="345" cy="206" r="17"/><circle class="cls-1" cx="485" cy="11" r="11"/><circle class="cls-1" cx="67.5" cy="411.5" r="9.5"/><circle class="cls-1" cx="17.5" cy="624.5" r="17.5"/><path class="cls-1" d="M81,658a30,30,0,1,0-53.21,19H74.21A29.87,29.87,0,0,0,81,658Z"/></g></g></svg>