<svg xmlns="http://www.w3.org/2000/svg" viewBox="0 0 16.73 14.7"><title>Ativo 27</title><g id="Camada_2" data-name="Camada 2"><g id="Camada_6" data-name="Camada 6"><path d="M6.5,2A4.5,4.5,0,1,0,9,10.24L4.85,7A1.5,1.5,0,1,1,6.7,4.62l4.08,3.2A4.44,4.44,0,0,0,6.5,2Z" style="fill:none"/><path d="M6.5,11A4.5,4.5,0,1,1,11,6.5a4.45,4.45,0,0,1-.22,1.32l1.67,1.3a6.51,6.51,0,1,0-1.81,2.39L9,10.24A4.5,4.5,0,0,1,6.5,11Z"/><path d="M16.15,12l-3.7-2.9a6.57,6.57,0,0,1-1.81,2.39l3.66,2.87A1.5,1.5,0,1,0,16.15,12Z"/><path d="M12.45,9.12l-1.67-1.3A4.51,4.51,0,0,1,9,10.24l1.63,1.27A6.57,6.57,0,0,0,12.45,9.12Z"/></g></g></svg>